<?xml version="1.0" encoding="utf-8"?>
<!-- Generator: Adobe Illustrator 16.0.0, SVG Export Plug-In . SVG Version: 6.00 Build 0)  -->
<!DOCTYPE svg PUBLIC "-//W3C//DTD SVG 1.1//EN" "http://www.w3.org/Graphics/SVG/1.1/DTD/svg11.dtd">
<svg version="1.1" id="Layer_1" xmlns="http://www.w3.org/2000/svg" xmlns:xlink="http://www.w3.org/1999/xlink" x="0px" y="0px"
	 width="30.535px" height="32px" viewBox="0 0 30.535 32" enable-background="new 0 0 30.535 32" xml:space="preserve">
<path d="M30.479,13.09c-0.147-0.873-0.577-1.591-1.2-2.02c0.393-1.484-0.337-3.215-1.746-4.137c0.136-0.674,0.01-1.434-0.365-2.144
	c-0.42-0.794-1.084-1.414-1.825-1.71c-0.002-1.36-0.932-2.545-2.393-2.96C22.542,0.04,22.1,0,21.6,0
	c-0.742,0-1.481,0.086-2.196,0.166c-0.24,0.027-0.478,0.055-0.755,0.086c-0.422,0.085-0.861,0.139-1.307,0.197
	c-0.914,0.117-1.856,0.238-2.71,0.605c-0.691,0.31-1.304,0.756-1.894,1.184c-0.192,0.14-0.382,0.277-0.575,0.414
	c-0.189,0.136-0.384,0.313-0.58,0.5c-0.34,0.322-0.689,0.652-1.029,0.718c-0.303,0.058-0.591,0.089-0.867,0.118
	c-0.313,0.035-0.613,0.066-0.91,0.13H8.63c-0.314,0-0.656-0.021-1.013-0.041C7.212,4.053,0.001,4.044,0.001,4.044v13.513
	c0,0,9.193,0.09,9.346,0.101c0.535,0.114,0.951,0.227,1.34,0.534c0.795,0.709,1.492,1.591,2.168,2.443l0.483,0.607
	c0.884,1.068,1.967,2.484,2.508,4.006c0.285,0.761,0.401,1.566,0.36,2.542c-0.005,0.187-0.019,0.365-0.024,0.539
	c-0.041,0.708-0.08,1.377,0.149,2.065C16.658,31.414,17.462,32,18.539,32c0.727,0,1.484-0.273,2.062-0.736
	c1.451-1.008,2.384-2.92,2.498-5.117c0.061-1.233-0.315-2.293-0.68-3.316c-0.316-0.895-0.617-1.736-0.613-2.646
	c0.004-1.382,1.197-1.765,2.885-2.156c0.186-0.045,0.367-0.086,0.511-0.123c0.192-0.035,0.39-0.068,0.589-0.103
	c1.268-0.209,2.7-0.45,3.739-1.439C30.312,15.585,30.686,14.3,30.479,13.09z M27.542,15.28c-0.846,0.474-1.881,0.643-2.883,0.806
	c-0.537,0.087-1.095,0.178-1.618,0.314c-1.795,0.466-3.085,1.872-3.21,3.497c-0.087,1.192,0.29,2.289,0.654,3.349
	c0.309,0.897,0.6,1.743,0.625,2.637c0.026,0.861-0.224,1.812-0.703,2.72c-0.459,0.715-1.231,1.487-1.845,1.487
	c-0.029,0-0.062-0.004-0.088-0.008c-0.377-0.054-0.367-0.772-0.323-1.442l0.008-0.164c0.056-1.099,0.08-2.025-0.17-3.097
	c-0.353-1.455-1.181-2.636-1.979-3.778c-0.173-0.248-0.349-0.498-0.523-0.758c-0.751-1.082-1.708-2.26-2.748-3.388
	c-0.196-0.237-0.411-0.5-0.675-0.681c-0.069-0.127-0.166-0.195-0.256-0.229c-0.646-0.496-1.338-0.785-2.215-0.928
	c-0.636-0.121-1.184-0.221-1.459-0.688c-0.553-0.979-0.57-2.328-0.58-3.406L7.55,11.268c-0.018-1.146-0.007-2.466,0.307-3.621
	c0.32-1.147,0.938-1.621,2.248-1.742c0.406,0,0.906,0,1.377-0.29c0.5-0.138,0.9-0.517,1.26-0.854
	c0.141-0.132,0.277-0.263,0.404-0.362c0.175-0.125,0.351-0.26,0.531-0.396c0.543-0.412,1.105-0.837,1.608-1.085
	c0.306-0.077,0.648-0.151,0.998-0.229l0.67-0.151c1.404-0.253,2.859-0.386,4.23-0.509c0.461,0,0.938,0,1.414,0.127
	c0.271,0.035,0.469,0.156,0.594,0.365c0.174,0.285,0.189,0.711,0.05,1.084c-0.112,0.258-0.093,0.535,0.058,0.764
	c0.225,0.349,0.68,0.501,1.027,0.501h0.048l0.045-0.009C24.46,4.85,24.5,4.844,24.54,4.844c0.285,0,0.578,0.237,0.784,0.633
	c0.259,0.5,0.295,1.106,0.105,1.377c-0.217,0.256-0.252,0.625-0.094,0.967c0.139,0.299,0.393,0.496,0.676,0.531
	c0.664,0.225,1.094,0.642,1.279,1.229c0.137,0.495,0.1,1.062-0.129,1.335c-0.219,0.36-0.268,0.783-0.135,1.12
	c0.109,0.277,0.338,0.479,0.679,0.574c0.634,0.115,0.823,0.63,0.871,1.046C28.682,14.421,28.096,15.004,27.542,15.28z"/>
</svg>
