<?xml version="1.0" encoding="utf-8"?>
<!-- Generator: Adobe Illustrator 16.0.0, SVG Export Plug-In . SVG Version: 6.00 Build 0)  -->
<!DOCTYPE svg PUBLIC "-//W3C//DTD SVG 1.1//EN" "http://www.w3.org/Graphics/SVG/1.1/DTD/svg11.dtd">
<svg version="1.1" id="Layer_1" xmlns="http://www.w3.org/2000/svg" xmlns:xlink="http://www.w3.org/1999/xlink" x="0px" y="0px"
	 width="30.535px" height="32px" viewBox="0 0 30.535 32" enable-background="new 0 0 30.535 32" xml:space="preserve">
<path d="M0.057,18.91c0.148,0.873,0.578,1.591,1.201,2.02c-0.393,1.484,0.336,3.215,1.746,4.137
	c-0.136,0.673-0.01,1.433,0.365,2.143c0.42,0.794,1.084,1.414,1.826,1.71c0.001,1.36,0.931,2.545,2.392,2.96
	C7.994,31.96,8.436,32,8.936,32c0.742,0,1.482-0.086,2.197-0.166c0.24-0.027,0.478-0.055,0.754-0.086
	c0.422-0.085,0.862-0.139,1.307-0.197c0.914-0.117,1.857-0.238,2.711-0.605c0.691-0.31,1.303-0.756,1.893-1.184
	c0.192-0.14,0.381-0.277,0.575-0.414c0.19-0.136,0.384-0.314,0.58-0.5c0.34-0.322,0.69-0.652,1.03-0.718
	c0.302-0.058,0.59-0.089,0.867-0.118c0.313-0.035,0.613-0.066,0.91-0.13h0.146c0.314,0,0.656,0.021,1.013,0.041
	c0.405,0.024,7.616,0.033,7.616,0.033V14.444c0,0-9.193-0.091-9.346-0.101c-0.534-0.115-0.95-0.227-1.34-0.535
	c-0.795-0.708-1.492-1.59-2.168-2.443l-0.483-0.607c-0.884-1.068-1.967-2.485-2.507-4.006c-0.285-0.761-0.402-1.567-0.361-2.542
	c0.005-0.186,0.018-0.365,0.025-0.539c0.041-0.708,0.08-1.377-0.15-2.065C13.878,0.586,13.074,0,11.997,0
	c-0.726,0-1.485,0.274-2.063,0.736c-1.451,1.008-2.383,2.92-2.498,5.118c-0.06,1.233,0.316,2.293,0.68,3.316
	c0.316,0.894,0.617,1.736,0.613,2.646c-0.004,1.382-1.197,1.765-2.885,2.157c-0.185,0.044-0.367,0.085-0.51,0.123
	c-0.193,0.035-0.39,0.068-0.589,0.102c-1.267,0.209-2.7,0.45-3.739,1.439C0.223,16.415-0.15,17.7,0.057,18.91z M2.994,16.72
	c0.846-0.474,1.881-0.643,2.883-0.806c0.537-0.087,1.094-0.178,1.618-0.314c1.795-0.466,3.085-1.871,3.21-3.496
	c0.087-1.193-0.29-2.29-0.654-3.349c-0.309-0.897-0.6-1.743-0.625-2.637C9.4,5.257,9.65,4.306,10.129,3.398
	c0.459-0.715,1.231-1.487,1.844-1.487c0.03,0,0.062,0.004,0.088,0.008c0.377,0.053,0.367,0.773,0.324,1.442l-0.008,0.164
	c-0.056,1.099-0.08,2.026,0.17,3.097c0.352,1.455,1.18,2.636,1.979,3.778c0.173,0.248,0.349,0.498,0.524,0.758
	c0.751,1.082,1.708,2.26,2.748,3.388c0.196,0.237,0.411,0.5,0.674,0.68c0.07,0.128,0.166,0.196,0.256,0.229
	c0.646,0.496,1.338,0.785,2.216,0.928c0.635,0.121,1.183,0.221,1.458,0.688c0.553,0.979,0.57,2.328,0.58,3.406l0.004,0.256
	c0.018,1.145,0.007,2.465-0.307,3.621c-0.319,1.147-0.938,1.621-2.248,1.742c-0.406,0-0.906,0-1.377,0.29
	c-0.5,0.138-0.9,0.517-1.259,0.853c-0.14,0.132-0.278,0.263-0.405,0.363c-0.174,0.125-0.35,0.26-0.53,0.396
	c-0.544,0.412-1.106,0.837-1.609,1.085c-0.306,0.077-0.649,0.152-0.998,0.23l-0.67,0.151c-1.405,0.253-2.86,0.386-4.231,0.509
	c-0.461,0-0.937,0-1.414-0.127c-0.27-0.035-0.469-0.156-0.594-0.365c-0.173-0.285-0.188-0.711-0.049-1.084
	c0.112-0.258,0.092-0.535-0.057-0.764c-0.225-0.349-0.68-0.501-1.028-0.501H6.162l-0.045,0.009c-0.041,0.01-0.081,0.015-0.121,0.015
	c-0.285,0-0.578-0.237-0.784-0.632c-0.259-0.5-0.295-1.107-0.106-1.377c0.217-0.256,0.252-0.625,0.094-0.967
	c-0.139-0.299-0.393-0.496-0.676-0.531c-0.664-0.225-1.094-0.642-1.279-1.229c-0.136-0.495-0.1-1.063,0.129-1.335
	c0.219-0.361,0.268-0.783,0.135-1.12c-0.109-0.278-0.338-0.478-0.679-0.575c-0.633-0.115-0.823-0.629-0.871-1.045
	C1.854,17.579,2.441,16.996,2.994,16.72z"/>
</svg>
