<?xml version="1.0" encoding="iso-8859-1"?>
<!-- Generator: Adobe Illustrator 16.0.0, SVG Export Plug-In . SVG Version: 6.00 Build 0)  -->
<!DOCTYPE svg PUBLIC "-//W3C//DTD SVG 1.1//EN" "http://www.w3.org/Graphics/SVG/1.1/DTD/svg11.dtd">
<svg version="1.1" id="Layer_1" xmlns="http://www.w3.org/2000/svg" xmlns:xlink="http://www.w3.org/1999/xlink" x="0px" y="0px"
	 width="30.535px" height="32px" viewBox="0 0 30.535 32" style="enable-background:new 0 0 30.535 32;" xml:space="preserve">
<path d="M29.529,15.637c-1.039-0.989-2.473-1.23-3.739-1.439c-0.199-0.034-0.396-0.067-0.589-0.102
	c-0.143-0.038-0.325-0.079-0.509-0.123c-1.688-0.392-2.881-0.775-2.885-2.157c-0.004-0.91,0.296-1.752,0.613-2.646
	c0.363-1.023,0.739-2.083,0.68-3.316c-0.115-2.198-1.047-4.11-2.498-5.118C20.024,0.274,19.263,0,18.538,0
	c-1.077,0-1.881,0.586-2.208,1.606c-0.231,0.688-0.192,1.357-0.151,2.065c0.009,0.174,0.021,0.353,0.026,0.539
	c0.041,0.975-0.076,1.781-0.361,2.542c-0.54,1.521-1.623,2.938-2.507,4.006l-0.483,0.607c-0.676,0.853-1.374,1.735-2.168,2.443
	c-0.39,0.308-0.806,0.42-1.341,0.535C9.194,14.353,0,14.444,0,14.444v13.512c0,0,7.211-0.009,7.616-0.033
	c0.356-0.021,0.699-0.041,1.013-0.041h0.146c0.297,0.063,0.597,0.095,0.91,0.13c0.278,0.029,0.566,0.06,0.868,0.118
	c0.339,0.065,0.69,0.396,1.03,0.717c0.196,0.186,0.389,0.365,0.58,0.501c0.195,0.136,0.383,0.274,0.576,0.414
	c0.589,0.428,1.2,0.874,1.892,1.183c0.854,0.368,1.797,0.489,2.711,0.606c0.444,0.058,0.885,0.112,1.307,0.197
	c0.276,0.031,0.513,0.058,0.753,0.086C20.117,31.914,20.858,32,21.599,32c0.501,0,0.942-0.04,1.349-0.121
	c1.461-0.415,2.391-1.6,2.392-2.96c0.742-0.296,1.406-0.916,1.826-1.71c0.375-0.71,0.501-1.47,0.365-2.142
	c1.411-0.923,2.139-2.653,1.747-4.138c0.622-0.428,1.052-1.146,1.201-2.019C30.686,17.7,30.313,16.415,29.529,15.637z
	 M28.577,18.344c-0.048,0.416-0.238,0.93-0.871,1.045c-0.341,0.097-0.569,0.297-0.679,0.575c-0.133,0.337-0.083,0.759,0.135,1.12
	c0.229,0.272,0.265,0.84,0.129,1.335c-0.185,0.588-0.615,1.005-1.28,1.23c-0.283,0.035-0.536,0.232-0.675,0.531
	c-0.158,0.341-0.123,0.711,0.094,0.966c0.188,0.27,0.152,0.877-0.107,1.377c-0.206,0.395-0.499,0.632-0.784,0.632
	c-0.04,0-0.08-0.004-0.121-0.014l-0.045-0.009h-0.046c-0.349,0-0.803,0.152-1.028,0.501c-0.148,0.228-0.169,0.506-0.057,0.763
	c0.139,0.373,0.124,0.799-0.049,1.085c-0.125,0.208-0.324,0.33-0.593,0.365c-0.478,0.126-0.954,0.126-1.415,0.126
	c-1.371-0.122-2.826-0.255-4.231-0.508l-0.67-0.151c-0.348-0.078-0.692-0.154-0.998-0.231c-0.503-0.248-1.066-0.673-1.609-1.085
	c-0.181-0.135-0.357-0.27-0.531-0.396c-0.127-0.1-0.265-0.231-0.405-0.363c-0.358-0.335-0.759-0.715-1.259-0.852
	c-0.47-0.29-0.971-0.29-1.377-0.29c-1.31-0.121-1.928-0.595-2.247-1.743c-0.314-1.156-0.325-2.476-0.307-3.62l0.004-0.257
	c0.01-1.078,0.027-2.426,0.58-3.406c0.275-0.466,0.823-0.566,1.458-0.687c0.878-0.143,1.569-0.432,2.215-0.928
	c0.091-0.033,0.186-0.101,0.256-0.229c0.263-0.18,0.478-0.443,0.674-0.68c1.04-1.128,1.996-2.306,2.748-3.388
	c0.175-0.26,0.351-0.51,0.524-0.758c0.798-1.142,1.626-2.323,1.978-3.778c0.25-1.071,0.226-1.998,0.17-3.097L18.15,3.361
	c-0.042-0.669-0.053-1.389,0.325-1.442c0.026-0.004,0.057-0.008,0.088-0.008c0.612,0,1.384,0.772,1.843,1.487
	c0.479,0.908,0.729,1.859,0.703,2.72c-0.025,0.894-0.316,1.74-0.625,2.637c-0.364,1.059-0.741,2.156-0.654,3.349
	c0.125,1.625,1.415,3.03,3.21,3.496c0.525,0.136,1.081,0.227,1.618,0.314c1.002,0.163,2.038,0.332,2.883,0.806
	C28.094,16.996,28.681,17.579,28.577,18.344z"/>
<g>
</g>
<g>
</g>
<g>
</g>
<g>
</g>
<g>
</g>
<g>
</g>
<g>
</g>
<g>
</g>
<g>
</g>
<g>
</g>
<g>
</g>
<g>
</g>
<g>
</g>
<g>
</g>
<g>
</g>
</svg>
