<?xml version="1.0" encoding="utf-8"?>
<!-- Generator: Adobe Illustrator 16.0.4, SVG Export Plug-In . SVG Version: 6.00 Build 0)  -->
<!DOCTYPE svg PUBLIC "-//W3C//DTD SVG 1.1//EN" "http://www.w3.org/Graphics/SVG/1.1/DTD/svg11.dtd">
<svg version="1.1" id="Capa_1" xmlns="http://www.w3.org/2000/svg" xmlns:xlink="http://www.w3.org/1999/xlink" x="0px" y="0px"
	 width="64px" height="64px" viewBox="0 0 64 64" enable-background="new 0 0 64 64" xml:space="preserve">
<g>
	<path d="M62.826,52.768L35.152,6.173c-0.576-0.968-1.476-1.524-2.467-1.524c-1.002,0-1.908,0.566-2.48,1.552L3.251,52.775
		c-0.571,0.984-0.612,2.047-0.112,2.914c0.497,0.865,1.437,1.361,2.577,1.361h54.673c1.143,0,2.082-0.498,2.578-1.369
		C63.462,54.812,63.41,53.75,62.826,52.768z M58.115,53.438H7.947c-0.499,0-0.7-0.351-0.45-0.783L32.243,9.899
		c0.25-0.433,0.659-0.436,0.914-0.006l25.399,42.768C58.812,53.089,58.615,53.438,58.115,53.438z"/>
	<path d="M33.289,42.561c1.08,0,1.997-0.955,2.045-2.133l0.713-17.436c0.051-1.178-0.867-2.131-2.046-2.131h-1.959
		c-1.178,0-2.072,0.952-1.993,2.13l1.143,17.44C31.269,41.607,32.207,42.561,33.289,42.561z"/>
	<path d="M34.023,44.697h-1.956c-1.179,0-2.135,0.953-2.135,2.135v1.955c0,1.179,0.956,2.135,2.135,2.135h1.956
		c1.181,0,2.138-0.956,2.138-2.135v-1.955C36.161,45.65,35.204,44.697,34.023,44.697z"/>
</g>
</svg>
